<svg width="12" height="11" viewBox="0 0 12 11" fill="none" xmlns="http://www.w3.org/2000/svg">
<path d="M5.25 7.7V6.23333H6.75V7.7H5.25ZM4.125 2.2H7.875V1.1H4.125V2.2ZM1.125 11C0.815625 11 0.550781 10.8923 0.330469 10.6769C0.110156 10.4615 0 10.2025 0 9.9V7.51667H4.125V8.25C4.125 8.40583 4.17891 8.53646 4.28672 8.64188C4.39453 8.74729 4.52812 8.8 4.6875 8.8H7.3125C7.47188 8.8 7.60547 8.74729 7.71328 8.64188C7.82109 8.53646 7.875 8.40583 7.875 8.25V7.51667H12V9.9C12 10.2025 11.8898 10.4615 11.6695 10.6769C11.4492 10.8923 11.1844 11 10.875 11H1.125ZM0 6.41667V3.3C0 2.9975 0.110156 2.73854 0.330469 2.52313C0.550781 2.30771 0.815625 2.2 1.125 2.2H3V1.09679C3 0.793375 3.11016 0.534722 3.33047 0.320833C3.55078 0.106944 3.81562 0 4.125 0H7.875C8.18437 0 8.44922 0.107709 8.66953 0.323125C8.88984 0.538542 9 0.7975 9 1.1V2.2H10.875C11.1844 2.2 11.4492 2.30771 11.6695 2.52313C11.8898 2.73854 12 2.9975 12 3.3V6.41667H7.875V5.68333C7.875 5.5275 7.82109 5.39687 7.71328 5.29146C7.60547 5.18604 7.47188 5.13333 7.3125 5.13333H4.6875C4.52812 5.13333 4.39453 5.18604 4.28672 5.29146C4.17891 5.39687 4.125 5.5275 4.125 5.68333V6.41667H0Z" fill="#126E5F"/>
</svg>
