<svg width="16" height="16" viewBox="0 0 16 16" fill="none" xmlns="http://www.w3.org/2000/svg">
<path d="M7.99771 13C8.27701 13 8.51389 12.9035 8.70833 12.7106C8.90278 12.5178 9 12.2817 9 12.0023C9 11.723 8.90354 11.4861 8.71062 11.2917C8.51785 11.0972 8.28174 11 8.00229 11C7.72299 11 7.48611 11.0965 7.29167 11.2894C7.09722 11.4822 7 11.7183 7 11.9977C7 12.277 7.09646 12.5139 7.28938 12.7083C7.48215 12.9028 7.71826 13 7.99771 13ZM8.00583 16C6.90472 16 5.86806 15.7917 4.89583 15.375C3.92361 14.9583 3.07292 14.3854 2.34375 13.6562C1.61458 12.9271 1.04167 12.0767 0.625 11.105C0.208333 10.1333 0 9.09514 0 7.99042C0 6.88569 0.208333 5.85069 0.625 4.88542C1.04167 3.92014 1.61458 3.07292 2.34375 2.34375C3.07292 1.61458 3.92333 1.04167 4.895 0.625C5.86667 0.208333 6.90486 0 8.00958 0C9.11431 0 10.1493 0.208333 11.1146 0.625C12.0799 1.04167 12.9271 1.61458 13.6562 2.34375C14.3854 3.07292 14.9583 3.92167 15.375 4.89C15.7917 5.85847 16 6.89319 16 7.99417C16 9.09528 15.7917 10.1319 15.375 11.1042C14.9583 12.0764 14.3854 12.9271 13.6562 13.6562C12.9271 14.3854 12.0783 14.9583 11.11 15.375C10.1415 15.7917 9.10681 16 8.00583 16ZM8.06688 4.45833C8.40479 4.45833 8.70729 4.56375 8.97438 4.77458C9.24146 4.98542 9.375 5.24896 9.375 5.56521C9.375 5.85507 9.28688 6.11806 9.11063 6.35417C8.93424 6.59028 8.73069 6.80556 8.5 7C8.18056 7.27778 7.88889 7.58333 7.625 7.91667C7.36111 8.25 7.22917 8.625 7.22917 9.04167C7.22917 9.25 7.30333 9.42361 7.45167 9.5625C7.6 9.70139 7.77306 9.77083 7.97083 9.77083C8.19403 9.77083 8.38313 9.69792 8.53813 9.55208C8.69326 9.40625 8.79167 9.22222 8.83333 9C8.88889 8.70833 9.01389 8.45042 9.20833 8.22625C9.40278 8.00222 9.61111 7.78833 9.83333 7.58458C10.1528 7.29208 10.4236 6.96049 10.6458 6.58979C10.8681 6.2191 10.9792 5.82111 10.9792 5.39583C10.9792 4.6875 10.691 4.10764 10.1146 3.65625C9.53819 3.20486 8.86743 2.97917 8.10229 2.97917C7.57368 2.97917 7.07382 3.09722 6.60271 3.33333C6.13146 3.56944 5.74194 3.9116 5.43417 4.35979C5.32528 4.50993 5.29514 4.675 5.34375 4.855C5.39236 5.035 5.49306 5.1875 5.64583 5.3125C5.84028 5.46528 6.04861 5.51042 6.27083 5.44792C6.49306 5.38542 6.68056 5.25694 6.83333 5.0625C6.98611 4.86806 7.1691 4.71875 7.38229 4.61458C7.59549 4.51042 7.82368 4.45833 8.06688 4.45833Z" fill="#BBBBBB"/>
</svg>
