<svg width="14" height="11" viewBox="0 0 14 11" fill="none" xmlns="http://www.w3.org/2000/svg">
<path d="M7.0001 8.38923C7.07788 8.38923 7.15288 8.37534 7.2251 8.34756C7.29733 8.31978 7.36122 8.27811 7.41677 8.22256L8.04177 7.63923C8.29177 7.40589 8.53344 7.15589 8.76677 6.88923C9.0001 6.62256 9.2001 6.34756 9.36677 6.06423C9.53344 5.78089 9.61677 5.50589 9.61677 5.23923C9.61677 4.85034 9.47627 4.51423 9.19527 4.23089C8.91416 3.94756 8.57688 3.80589 8.18344 3.80589C7.96122 3.80589 7.74733 3.85589 7.54177 3.95589C7.33622 4.05589 7.15566 4.18923 7.0001 4.35589C6.84455 4.18923 6.66316 4.05589 6.45594 3.95589C6.24871 3.85589 6.0346 3.80589 5.8136 3.80589C5.42683 3.80589 5.09455 3.94756 4.81677 4.23089C4.53899 4.51423 4.4001 4.85034 4.4001 5.23923C4.4001 5.50589 4.48066 5.78089 4.64177 6.06423C4.80288 6.34756 5.0001 6.62256 5.23344 6.88923C5.46677 7.15589 5.70844 7.40589 5.95844 7.63923L6.58344 8.22256C6.63899 8.27811 6.70288 8.31978 6.7751 8.34756C6.84733 8.37534 6.92233 8.38923 7.0001 8.38923ZM3.39544 10.6059C3.06521 10.6059 2.78344 10.4886 2.5501 10.2539C2.31677 10.0192 2.2001 9.73717 2.2001 9.40773V4.98923L1.61994 5.44289C1.48449 5.54045 1.33344 5.57811 1.16677 5.55589C1.0001 5.53367 0.86677 5.45589 0.76677 5.32256C0.66677 5.18923 0.627881 5.03923 0.650104 4.87256C0.672326 4.70589 0.748492 4.57267 0.878604 4.47289L6.26677 0.355892C6.37788 0.267003 6.49733 0.205892 6.6251 0.172559C6.75288 0.139225 6.87788 0.122559 7.0001 0.122559C7.12233 0.122559 7.24733 0.139225 7.3751 0.172559C7.50288 0.205892 7.62233 0.267003 7.73344 0.355892L13.1221 4.47289C13.2519 4.57267 13.3279 4.70589 13.3501 4.87256C13.3723 5.03923 13.3334 5.19167 13.2334 5.32989C13.1334 5.45834 13.0005 5.53367 12.8346 5.55589C12.6686 5.57811 12.5182 5.53923 12.3834 5.43923L11.8001 4.98923V9.40773C11.8001 9.73717 11.6825 10.0192 11.4474 10.2539C11.2123 10.4886 10.9297 10.6059 10.5994 10.6059H3.39544ZM3.4001 9.40589H10.6001V4.06706L7.0001 1.32256L3.4001 4.05589V9.40589Z" fill="#0B9C84"/>
</svg>
