<?xml version="1.0" encoding="utf-8"?>
<!-- Svg Vector Icons : http://www.onlinewebfonts.com/icon -->
<!DOCTYPE svg PUBLIC "-//W3C//DTD SVG 1.1//EN" "http://www.w3.org/Graphics/SVG/1.1/DTD/svg11.dtd">
<svg version="1.1" xmlns="http://www.w3.org/2000/svg" xmlns:xlink="http://www.w3.org/1999/xlink" x="0px" y="0px" viewBox="0 0 256 256" enable-background="new 0 0 256 256" xml:space="preserve">
<metadata> Svg Vector Icons : http://www.onlinewebfonts.com/icon </metadata>
<g><g><g><g><path fill="#000000" d="M112.4 200L10 145.4 10 159.3 112.4 218.2 246 141.4 246 128.9 112.4 200 z"/><path fill="#000000" d="M107.8,192.7l-0.1-104.9L15,62.7l0.1,81.8L107.8,192.7z M77.7,96.5l23.8,7.5v7.3l-23.8-7.9V96.5z M77.7,109.5l23.8,8.3v7.3l-23.8-8.7V109.5z M77.7,121.1l23.8,9v7.3L77.7,128V121.1z M48.2,87.2l23,7.2v6.7l-23-7.7V87.2z M48.2,99.2l23,8v6.7l-23-8.4V99.2z M48.2,109.9l23,8.7v6.7l-23-9.1V109.9z M22.8,79.2l17.5,5.5v6.2l-17.5-5.8V79.2z M22.8,90.3l17.5,6.1v6.2l-17.5-6.4V90.3z M22.8,100.3l17.5,6.6v6.2l-17.5-6.9V100.3z"/><path fill="#000000" d="M183.7,57.2V69l-71.3,19.3v106.8L224,137v-30.2l22-9.3V42.4L183.7,57.2z M147.1,159.9l-24.9,11.9v-14.4l24.9-11.1V159.9z M147.1,141.5l-24.9,10.7v-14.4l24.9-9.9V141.5z M147.1,122.7l-24.9,9.5v-14.4l24.9-8.7V122.7z M147.1,103.4l-24.9,8.3V97.4l24.9-7.5V103.4z M202,141.6l-12.2,6.1v-10.4l12.2-5.8V141.6z M202,124.9l-12.2,5.5v-10.4l12.2-5.2V124.9z M202,106.2l-12.2,4.8v-10.4l12.2-4.5V106.2z M202,89.6l-12.2,4.2V83.5l12.2-3.9V89.6z M202,74l-12.2,3.7V67.3L202,64V74z M216.1,134.5l-11.2,5.6v-9.9l11.2-5.3V134.5z M216.1,118.6l-11.2,5.1v-9.9l11.2-4.7V118.6z M216.1,100.7l-11.2,4.4v-9.9l11.2-4.1V100.7z M216.1,84.7l-11.2,3.9v-9.9l11.2-3.5V84.7z M216.1,69.8l-11.2,3.4v-9.9l11.2-3V69.8z M228.8,95.6l-10.3,4.1v-9.5l10.3-3.8V95.6z M228.8,80.3l-10.3,3.6v-9.5l10.3-3.3V80.3z M228.8,66l-10.3,3.1v-9.5l10.3-2.8V66z M240.8,90.9l-9.5,3.8v-9.2l9.5-3.5V90.9z M240.8,76.2l-9.5,3.3v-9.2l9.5-3V76.2z M240.8,62.4l-9.5,2.9v-9.2l9.5-2.6V62.4z"/><path fill="#000000" d="M154.9 74L154.9 74.2 165.4 71.4 165.4 71.4 165.4 71.4 181.8 67.1 181.8 63.1 154.9 58.2 154.9 58.3 93.3 47.2 16.5 60 110.8 85.2 z"/><path fill="#000000" d="M243.4 41.5L213.4 37.8 154.9 49.5 154.9 51.2 182.2 55.8 z"/><path fill="#000000" d="M181.8 61.7L181.8 57.4 154.9 52.9 154.9 56.8 z"/></g></g><g></g><g></g><g></g><g></g><g></g><g></g><g></g><g></g><g></g><g></g><g></g><g></g><g></g><g></g><g></g></g></g>
</svg>