<svg width="14" height="14" viewBox="0 0 14 14" fill="none" xmlns="http://www.w3.org/2000/svg">
<path d="M5.66659 8.33325L0.895752 6.56242C0.742974 6.49297 0.621446 6.39575 0.531169 6.27075C0.440891 6.14575 0.395752 6.00686 0.395752 5.85409C0.395752 5.70131 0.437419 5.56589 0.520752 5.44784C0.604085 5.32978 0.722141 5.23603 0.874919 5.16659L12.3958 0.624919C12.5485 0.555474 12.6978 0.541585 12.8437 0.583252C12.9895 0.624919 13.111 0.694363 13.2083 0.791585C13.3055 0.888808 13.3749 1.01034 13.4166 1.15617C13.4583 1.302 13.4444 1.45131 13.3749 1.60409L8.83325 13.1249C8.76381 13.2777 8.67006 13.3958 8.552 13.4791C8.43395 13.5624 8.29853 13.6041 8.14575 13.6041C7.99297 13.6041 7.85409 13.5589 7.72909 13.4687C7.60409 13.3784 7.50686 13.2569 7.43742 13.1041L5.66659 8.33325Z" fill="#01B89B"/>
</svg>
