<svg width="34" height="54" viewBox="0 0 34 54" fill="none" xmlns="http://www.w3.org/2000/svg">
<path d="M16.6338 50.7755L9.04391 48.9944L8.87422 49.8459L16.4641 51.627L16.6338 50.7755Z" fill="#63707A"/>
<path d="M5.08374 46.3862C4.40741 47.0109 4.95903 48.1529 5.60796 48.4028C6.02373 48.5627 6.56472 48.2681 6.56825 47.6526C6.57205 46.9892 5.61148 45.7198 5.08374 46.3862Z" fill="#D52E2F"/>
<path d="M21.2307 50.1755C21.609 51.0476 20.6718 51.8402 19.9855 51.7768C19.5462 51.736 19.1657 51.2252 19.3969 50.6631C19.646 50.0573 21.0041 49.3321 21.2307 50.1755Z" fill="#D52E2F"/>
<path d="M28.252 5.13176C27.2939 4.32382 26.1964 3.7908 25.0402 3.51948L22.2089 2.85505L19.3774 2.19057C18.2217 1.91936 17.019 1.91257 15.8389 2.21874C14.0915 2.67249 11.983 3.88353 11.1001 7.00821L3.95746 42.8481C3.95746 42.8481 3.44274 47.5995 7.82463 49.2369L17.6463 51.5417C22.2602 52.0154 23.6009 47.4578 23.6009 47.4578L30.7436 11.618C31.1294 8.37666 29.6704 6.32842 28.252 5.13176Z" fill="#FDB824"/>
<path d="M9.97812 15.8715L7.56808 27.9643L9.08526 28.9286L9.98582 24.4099C10.2665 23.0016 10.3611 21.5599 10.2657 20.1435L9.97812 15.8715Z" fill="#212B32"/>
<path d="M8.94144 29.6503L7.43872 28.6135L5.43397 38.6727L5.64878 38.3964C7.01108 36.6436 7.97873 34.4809 8.44289 32.1519L8.94144 29.6503Z" fill="#212B32"/>
<path d="M28.4044 20.1956L25.9944 32.2885L24.2456 32.4863L25.1462 27.9676C25.4268 26.5593 25.8897 25.204 26.5158 23.9569L28.4044 20.1956Z" fill="#212B32"/>
<path d="M24.1018 33.208L25.865 32.9376L23.8603 42.9969L23.7699 42.6489C23.1967 40.4419 23.1391 38.0386 23.6032 35.7096L24.1018 33.208Z" fill="#212B32"/>
<path d="M12.9796 5.78871L12.3504 5.64105L11.9803 7.49832L12.6095 7.64598L12.9796 5.78871Z" fill="#212B32"/>
<path d="M13.6163 5.93813L12.9873 5.79053L12.6172 7.64779L13.2462 7.7954L13.6163 5.93813Z" fill="#FDB824"/>
<path d="M13.2429 7.81185L12.6139 7.66425L12.2437 9.52176L12.8727 9.66937L13.2429 7.81185Z" fill="#212B32"/>
<path d="M12.6062 7.66249L11.977 7.51483L11.6068 9.37235L12.236 9.52001L12.6062 7.66249Z" fill="#FDB824"/>
<path d="M12.2328 9.53621L11.6036 9.38855L11.2334 11.2461L11.8626 11.3937L12.2328 9.53621Z" fill="#212B32"/>
<path d="M12.8695 9.68563L12.2405 9.53802L11.8703 11.3955L12.4993 11.5431L12.8695 9.68563Z" fill="#FDB824"/>
<path d="M12.496 11.5594L11.867 11.4118L11.4969 13.2691L12.1259 13.4167L12.496 11.5594Z" fill="#212B32"/>
<path d="M11.8594 11.41L11.2302 11.2623L10.86 13.1196L11.4892 13.2673L11.8594 11.41Z" fill="#FDB824"/>
<path d="M11.4859 13.2837L10.8567 13.136L10.4865 14.9936L11.1157 15.1412L11.4859 13.2837Z" fill="#212B32"/>
<path d="M6.44488 38.5783L5.81567 38.4306L5.44548 40.2881L6.07469 40.4358L6.44488 38.5783Z" fill="#212B32"/>
<path d="M7.08155 38.7277L6.45258 38.5801L6.08238 40.4376L6.71136 40.5852L7.08155 38.7277Z" fill="#FDB824"/>
<path d="M6.70811 40.6015L6.07913 40.4539L5.70899 42.3111L6.33797 42.4587L6.70811 40.6015Z" fill="#212B32"/>
<path d="M6.07147 40.452L5.44226 40.3044L5.07212 42.1616L5.70132 42.3093L6.07147 40.452Z" fill="#FDB824"/>
<path d="M5.69802 42.3258L5.06882 42.1781L4.69863 44.0356L5.32783 44.1833L5.69802 42.3258Z" fill="#212B32"/>
<path d="M6.3347 42.4752L5.70572 42.3276L5.33553 44.1851L5.96451 44.3327L6.3347 42.4752Z" fill="#FDB824"/>
<path d="M5.96125 44.349L5.33228 44.2014L4.96208 46.0589L5.59106 46.2065L5.96125 44.349Z" fill="#212B32"/>
<path d="M29.4968 9.66481L28.8676 9.51715L28.4974 11.3744L29.1266 11.5221L29.4968 9.66481Z" fill="#FDB824"/>
<path d="M29.7598 11.688L29.131 11.5404L28.7609 13.3979L29.3896 13.5455L29.7598 11.688Z" fill="#FDB824"/>
<path d="M28.75 13.4123L28.1208 13.2646L27.7506 15.1222L28.3798 15.2698L28.75 13.4123Z" fill="#FDB824"/>
<path d="M29.0129 15.4355L28.3842 15.2879L28.014 17.1452L28.6428 17.2927L29.0129 15.4355Z" fill="#FDB824"/>
<path d="M30.1333 9.81418L29.5045 9.66663L29.1344 11.5239L29.7631 11.6714L30.1333 9.81418Z" fill="#212B32"/>
<path d="M29.1234 11.5385L28.4942 11.3909L28.124 13.2484L28.7532 13.396L29.1234 11.5385Z" fill="#212B32"/>
<path d="M29.3864 13.5617L28.7576 13.4141L28.3874 15.2716L29.0162 15.4192L29.3864 13.5617Z" fill="#212B32"/>
<path d="M28.3765 15.2861L27.7473 15.1384L27.3772 16.9957L28.0064 17.1433L28.3765 15.2861Z" fill="#212B32"/>
<path d="M28.6395 17.3092L28.0108 17.1616L27.6406 19.0191L28.2693 19.1667L28.6395 17.3092Z" fill="#212B32"/>
<path d="M23.5985 42.6037L22.9697 42.4562L22.5995 44.3137L23.2283 44.4612L23.5985 42.6037Z" fill="#212B32"/>
<path d="M22.962 42.4544L22.3328 42.3068L21.9626 44.1643L22.5918 44.3119L22.962 42.4544Z" fill="#FDB824"/>
<path d="M22.5886 44.3282L21.9594 44.1805L21.5893 46.0378L22.2185 46.1855L22.5886 44.3282Z" fill="#212B32"/>
<path d="M23.225 44.4775L22.5963 44.33L22.2261 46.1872L22.8549 46.3348L23.225 44.4775Z" fill="#FDB824"/>
<path d="M22.8516 46.3512L22.2229 46.2037L21.8527 48.0612L22.4814 48.2087L22.8516 46.3512Z" fill="#212B32"/>
<path d="M22.2152 46.2019L21.586 46.0543L21.2158 47.9118L21.845 48.0594L22.2152 46.2019Z" fill="#FDB824"/>
<path d="M21.8418 48.0757L21.2126 47.928L20.8424 49.7856L21.4716 49.9332L21.8418 48.0757Z" fill="#212B32"/>
<path d="M26.9881 17.5763C25.128 14.8136 22.205 13.9722 20.8297 13.7225C20.3256 13.6309 19.8258 13.5136 19.3319 13.371C17.9844 12.9817 15.0022 12.4374 12.2563 14.1194C11.6461 14.4931 11.2646 15.2915 11.3048 16.1141L11.5738 21.6253C11.5738 21.6253 13.8777 21.0238 17.7525 22.1916C18.1326 22.3062 18.5195 22.3969 18.9093 22.463C22.8825 23.137 24.7515 24.7177 24.7515 24.7177L27.095 19.8197C27.445 19.0886 27.4014 18.1904 26.9881 17.5763Z" fill="#212B32"/>
<path d="M21.122 41.4505C18.2467 41.7152 16.0813 41.2678 15.1447 41.0155C14.8024 40.9232 14.4582 40.8424 14.1113 40.773C13.1621 40.5827 11.0203 40.0194 8.50229 38.489C8.29227 38.3614 8.02769 38.5004 7.93921 38.786L6.49575 43.4541C6.42771 43.674 6.48632 43.9135 6.63815 44.0329C7.33458 44.5805 9.48504 46.0471 13.4326 46.8923C17.3493 47.8926 19.8661 47.5212 20.7088 47.3349C20.8927 47.2943 21.0371 47.1024 21.0588 46.8716L21.5219 41.9735C21.55 41.6737 21.362 41.4285 21.122 41.4505Z" fill="#212B32"/>
<path d="M17.4516 22.9467C16.1925 22.5832 13.5372 21.9624 11.6607 22.5403C11.2457 22.6684 10.9169 23.0924 10.8136 23.6107L8.80855 33.6717C8.45606 35.4404 8.99356 37.2415 10.1782 38.1655C11.1181 38.8987 12.5564 39.6693 14.7563 40.289C16.9956 40.7111 18.5988 40.6542 19.7339 40.4079C21.1645 40.0977 22.3396 38.6985 22.6921 36.9298L24.6972 26.8688C24.8005 26.3505 24.6628 25.817 24.3337 25.5143C22.8449 24.1467 20.1904 23.5214 18.9054 23.2879C18.4157 23.1992 17.9314 23.0855 17.4516 22.9467Z" fill="#FECC73"/>
<path d="M12.8544 5.18436C12.7532 4.97995 12.8207 4.69965 12.9834 4.54538C13.3265 4.22034 13.6407 3.79553 14.0282 3.50419C14.49 3.15671 15.1718 2.76187 15.8055 2.56573C16.0781 2.48151 16.2735 2.84315 16.1205 3.14396C16.0617 3.2595 16.0099 3.37146 15.9668 3.46398C15.7373 3.95709 15.5659 4.29288 15.1726 4.62553C14.8023 4.93897 13.1829 5.84745 12.8544 5.18436Z" fill="white"/>
<path d="M29.8584 9.17474C30.0286 9.03402 30.0739 8.74851 29.9842 8.53502C29.7955 8.08514 29.6714 7.55748 29.4297 7.11848C29.1412 6.59493 28.6707 5.92969 28.1684 5.46696C27.9521 5.26803 27.6365 5.50972 27.6613 5.85226C27.6709 5.98386 27.6754 6.10902 27.6794 6.21261C27.7009 6.76463 27.7288 7.14718 27.9604 7.62648C28.1782 8.07795 29.307 9.63132 29.8584 9.17474Z" fill="white"/>
<path d="M17.4955 3.71137C16.3342 5.54637 15.4884 7.3991 14.9412 9.61018C14.8929 9.80596 14.1521 12.4408 14.8903 12.3533C15.3165 12.3027 15.4565 10.0354 15.5358 9.71724C16.012 7.80657 16.4039 5.73396 17.4955 3.71137Z" fill="#D89428"/>
<path d="M26.1847 5.75049C26.5437 7.94225 26.6084 10.0087 26.2648 12.2675C26.2345 12.4675 25.9056 15.1991 25.2666 14.7883C24.8978 14.5512 25.6337 12.4237 25.6826 12.0984C25.9765 10.145 26.4088 8.08184 26.1847 5.75049Z" fill="#D89428"/>
<path d="M9.7139 15.6907C9.64181 15.3724 9.32191 15.2161 8.86935 15.3969C8.41756 15.5773 7.95033 15.9353 7.54844 16.4299C7.43897 16.5647 6.9619 17.1102 6.99697 17.4177C7.0268 17.6813 7.58918 17.5378 7.68747 17.5282C8.2746 17.4701 9.03446 17.1182 9.45136 16.5507C9.69117 16.2239 9.76505 15.9163 9.7139 15.6907Z" fill="#D89428"/>
<path d="M28.7088 20.1482C28.8956 19.8907 29.2464 19.8918 29.5897 20.2594C29.9324 20.6262 30.2216 21.1617 30.3993 21.7923C30.4474 21.9641 30.6743 22.6748 30.5253 22.9391C30.3975 23.1658 29.94 22.7829 29.8544 22.7301C29.3419 22.414 28.7839 21.7528 28.6204 21.0491C28.5262 20.644 28.576 20.3307 28.7088 20.1482Z" fill="#D89428"/>
<path d="M19.2994 30.3403L14.4027 29.1912C14.1265 29.1264 13.9519 28.827 14.0126 28.5225L14.3387 26.8864C14.3994 26.5817 14.6723 26.3876 14.9485 26.4524L19.8452 27.6015C20.1211 27.6663 20.296 27.9655 20.2353 28.2702L19.9092 29.9063C19.8485 30.2107 19.5753 30.405 19.2994 30.3403Z" fill="#D89428"/>
<path d="M18.8466 29.5883L15.0986 28.7087C14.8463 28.6495 14.6865 28.3758 14.742 28.0974L14.8521 27.5449C14.9076 27.2662 15.1573 27.0886 15.4097 27.1479L19.1577 28.0274C19.4098 28.0866 19.5696 28.3603 19.5141 28.6389L19.404 29.1915C19.3485 29.4699 19.0988 29.6474 18.8466 29.5883Z" fill="#FDB824"/>
</svg>
