<svg width="14" height="14" viewBox="0 0 14 14" fill="none" xmlns="http://www.w3.org/2000/svg">
<path d="M6.99404 13.4104C6.11562 13.4104 5.28724 13.2437 4.50889 12.9101C3.73054 12.5765 3.04949 12.1178 2.46573 11.5341C1.88197 10.9503 1.4233 10.2693 1.08972 9.49091C0.756144 8.71257 0.589355 7.88418 0.589355 7.00576C0.589355 6.11622 0.756144 5.28506 1.08972 4.51227C1.4233 3.73948 1.88197 3.06121 2.46573 2.47745C3.04949 1.89369 3.73054 1.43502 4.50889 1.10144C5.28724 0.767863 6.11562 0.601074 6.99404 0.601074C7.88358 0.601074 8.71475 0.767863 9.48753 1.10144C10.2603 1.43502 10.9386 1.89369 11.5224 2.47745C12.1061 3.06121 12.5648 3.73948 12.8984 4.51227C13.2319 5.28506 13.3987 6.11622 13.3987 7.00576C13.3987 7.30598 13.3793 7.60064 13.3404 7.88974C13.3014 8.17884 13.2431 8.46238 13.1652 8.74037C13.0096 8.59581 12.8372 8.47906 12.6482 8.39011C12.4592 8.30115 12.259 8.24556 12.0477 8.22332C12.1033 8.02317 12.1423 7.82303 12.1645 7.62288C12.1867 7.42273 12.1979 7.21703 12.1979 7.00576C12.1979 5.56026 11.6919 4.33158 10.6801 3.31973C9.66822 2.30788 8.43955 1.80195 6.99404 1.80195C5.54854 1.80195 4.31986 2.30788 3.30801 3.31973C2.29616 4.33158 1.79023 5.56026 1.79023 7.00576C1.79023 8.45126 2.29616 9.67994 3.30801 10.6918C4.31986 11.7036 5.54854 12.2096 6.99404 12.2096C7.57224 12.2096 8.11987 12.1234 8.63691 11.951C9.15396 11.7787 9.62931 11.5313 10.063 11.2088C10.163 11.3979 10.2909 11.5591 10.4466 11.6925C10.6022 11.826 10.7746 11.9371 10.9636 12.0261C10.4188 12.4598 9.80999 12.7989 9.13728 13.0435C8.46456 13.2881 7.75015 13.4104 6.99404 13.4104ZM11.7976 11.0087C11.5752 11.0087 11.3861 10.9309 11.2305 10.7752C11.0748 10.6195 10.997 10.4305 10.997 10.2081C10.997 9.98572 11.0748 9.79669 11.2305 9.64102C11.3861 9.48535 11.5752 9.40752 11.7976 9.40752C12.0199 9.40752 12.209 9.48535 12.3646 9.64102C12.5203 9.79669 12.5981 9.98572 12.5981 10.2081C12.5981 10.4305 12.5203 10.6195 12.3646 10.7752C12.209 10.9309 12.0199 11.0087 11.7976 11.0087ZM9.22901 9.84117L6.3936 7.00576V3.00283H7.59448V6.5054L10.0796 8.99055L9.22901 9.84117Z" fill="#DC3545"/>
</svg>
